<svg width="20" height="16" viewBox="0 0 20 16" fill="none" xmlns="http://www.w3.org/2000/svg">
<path d="M19.8005 5.86877L13.086 0.805481C12.9072 0.670634 12.6609 0.670634 12.482 0.805481L11.3782 1.63785L10.2745 0.805481C10.0956 0.670634 9.84928 0.670634 9.67044 0.805481L8.59417 1.61707L7.5179 0.805481C7.33906 0.670634 7.09273 0.670634 6.91389 0.805481L0.199476 5.86877C0.0738721 5.96356 0 6.11188 0 6.26922V14.794C0 15.071 0.224554 15.2956 0.501557 15.2956H3.25811H6.06955H13.9304H16.687H19.4984C19.7754 15.2956 20 15.071 20 14.794V6.26922C20 6.11188 19.9261 5.96356 19.8005 5.86877ZM18.9969 14.2925H17.1886V6.26922C17.1886 6.11181 17.1147 5.96356 16.989 5.86877L12.2113 2.26601L12.784 1.8341L18.9969 6.51921V14.2925ZM14.432 14.2925V6.26922C14.432 6.11181 14.3581 5.96356 14.2325 5.86877L9.42726 2.24531L9.97252 1.83417L16.1854 6.51929V14.2926H14.432V14.2925ZM8.03737 14.2924H6.57111H6.39456V10.6554H8.03737V14.2924ZM9.04049 14.2924V10.1539C9.04049 9.87685 8.81593 9.65229 8.53893 9.65229H5.893C5.616 9.65229 5.39145 9.87685 5.39145 10.1539V14.2924H3.75967H1.00311V6.51914L7.21597 1.83403L13.4289 6.51914V14.2924H9.04049Z" fill="#0061DF"/>
</svg>
