<svg width="17" height="17" viewBox="0 0 17 17" fill="none" xmlns="http://www.w3.org/2000/svg">
<path d="M16.1481 0.146911L0.146617 16.1484C-0.166826 16.4618 0.0555315 17.0002 0.499447 17.0002H16.5009C16.7765 17.0002 16.9999 16.7768 16.9999 16.5012V0.499775C16.9999 0.056491 16.462 -0.166964 16.1481 0.146911ZM16.0019 16.0022H1.70418L4.24202 13.4644L4.93711 14.1595C5.03454 14.2569 5.16226 14.3056 5.28994 14.3056C5.73053 14.3056 5.95804 13.769 5.64277 13.4537L4.94769 12.7587L6.37108 11.3353L7.06616 12.0304C7.1636 12.1278 7.29132 12.1765 7.41899 12.1765C7.85958 12.1765 8.0871 11.6399 7.77182 11.3246L7.07678 10.6296L8.50017 9.2062L9.19526 9.90128C9.29269 9.99872 9.42041 10.0474 9.54809 10.0474C9.98868 10.0474 10.2162 9.51083 9.90092 9.19556L9.20587 8.50051L10.6293 7.07711L11.3243 7.77219C11.4218 7.86963 11.5495 7.91833 11.6772 7.91833C12.1178 7.91833 12.3453 7.38173 12.03 7.06646L11.335 6.37141L12.7584 4.94802L13.4534 5.6431C13.5509 5.74054 13.6786 5.78924 13.8063 5.78924C14.2469 5.78924 14.4744 5.25264 14.1591 4.93737L13.4641 4.24232L16.0019 1.70448V16.0022H16.0019Z" fill="white"/>
<path d="M12.9209 8.39685L8.39662 12.9212C8.08317 13.2346 8.30553 13.773 8.74945 13.773H13.2738C13.5493 13.773 13.7728 13.5496 13.7728 13.274V8.74971C13.7728 8.30643 13.2348 8.08298 12.9209 8.39685ZM12.7748 12.775H9.95418L12.7748 9.95441V12.775Z" fill="white"/>
</svg>
