<svg width="16" height="18" viewBox="0 0 16 18" fill="none" xmlns="http://www.w3.org/2000/svg">
<path d="M8.00014 0C4.02393 0 0.789062 3.2349 0.789062 7.21107V7.41041C0.789062 9.42135 1.94198 11.7647 4.21588 14.3753C5.86429 16.2679 7.48967 17.5875 7.55801 17.6427L8.00014 18L8.44226 17.6428C8.51064 17.5875 10.136 16.2679 11.7844 14.3754C14.0583 11.7647 15.2112 9.42138 15.2112 7.41045V7.21111C15.2112 3.2349 11.9763 0 8.00014 0ZM13.8042 7.41045C13.8042 10.8088 9.42544 14.9226 8.00014 16.1715C6.57444 14.9222 2.19609 10.8086 2.19609 7.41045V7.21111C2.19609 4.01077 4.79979 1.40706 8.00014 1.40706C11.2005 1.40706 13.8042 4.01077 13.8042 7.21111V7.41045Z" fill="white"/>
</svg>
