<svg width="20" height="20" viewBox="0 0 20 20" fill="none" xmlns="http://www.w3.org/2000/svg">
<path d="M20 0.838095L19.1742 0.00760651L16.916 2.25306L9.59496 1.4034L0 10.9858L8.99492 19.9925L18.5898 10.41L17.7485 3.07687L20 0.838095ZM17.3618 9.98132L8.99597 18.3362L1.65625 10.9869L10.0221 2.63196L15.8543 3.30883L14.6815 4.47501C14.4724 4.38206 14.2444 4.33271 14.0086 4.33271C13.5664 4.33271 13.1506 4.50479 12.8377 4.81729C12.1912 5.46293 12.1905 6.51422 12.8361 7.16072C13.1492 7.4742 13.5656 7.64682 14.0086 7.64682C14.4509 7.64682 14.8667 7.47474 15.1796 7.16224C15.6832 6.65932 15.7948 5.91038 15.5145 5.29827L16.6904 4.12901L17.3618 9.98132ZM14.352 6.33359C14.2603 6.42521 14.1383 6.47569 14.0086 6.47569C13.8787 6.47569 13.7566 6.42506 13.6648 6.33316C13.4755 6.14359 13.4757 5.83527 13.6652 5.64594C13.757 5.55428 13.879 5.50384 14.0086 5.50384C14.1386 5.50384 14.2607 5.55448 14.3525 5.64637C14.5418 5.83594 14.5416 6.14426 14.352 6.33359Z" fill="#0061DF"/>
</svg>
