<svg width="20" height="20" viewBox="0 0 20 20" fill="none" xmlns="http://www.w3.org/2000/svg">
<path d="M16.2188 2.54889H17.3907V3.72076H16.2188V2.54889Z" fill="#0061DF"/>
<path d="M18.5408 15.4396C17.8592 14.9857 17.0415 14.8244 16.2386 14.9855L13.0805 15.6486C13.2659 14.7476 12.7955 13.8363 11.9321 13.498L8.55254 12.1603C7.20613 11.6275 5.71113 11.595 4.34094 12.0696L0 13.5909V19.3935L4.96934 17.7262L11.017 20L20 18.148L19.8477 17.3885C19.6866 16.5856 19.2225 15.8935 18.5408 15.4396ZM11.1124 18.7819L4.99168 16.4805L1.17379 17.7615V14.4234L4.72711 13.1781C5.83004 12.7961 7.0352 12.8223 8.12055 13.2518L11.502 14.5902C11.8529 14.7276 12.0321 15.1435 11.9017 15.5171C11.8336 15.7124 11.6956 15.8661 11.5134 15.9499C11.3438 16.0278 11.1562 16.0339 10.9855 15.9669L6.89266 14.3631L6.46441 15.456L10.5573 17.0599C10.8827 17.1874 11.2288 17.2193 11.5643 17.1566L11.5663 17.166L16.4721 16.136C16.9666 16.0375 17.4704 16.1371 17.8904 16.4167C18.1999 16.6228 18.4367 16.9084 18.5798 17.2424L11.1124 18.7819Z" fill="#0061DF"/>
<path d="M9.97285 10.9817C10.1661 11.038 10.3633 11.0655 10.5589 11.0654C11.1065 11.0654 11.6414 10.8504 12.0398 10.4519L15.0445 7.44719L16.0786 8.48129L19.1682 5.39164C19.7047 4.85516 20.0002 4.14184 20.0002 3.38309C20.0002 2.62434 19.7047 1.91102 19.1682 1.37453L18.6256 0.831953C18.0891 0.295469 17.3758 0 16.6171 0C15.8583 0 15.145 0.295469 14.6085 0.831953L11.5189 3.9216L12.553 4.95566L7.30469 10.2039L9.97285 10.9817ZM13.1762 3.9216L15.4371 1.66059C15.7523 1.34543 16.1713 1.17188 16.6171 1.17188C17.0628 1.17188 17.4819 1.34543 17.797 1.66059L18.3396 2.20316C18.6548 2.51832 18.8283 2.93738 18.8283 3.38309C18.8283 3.82879 18.6548 4.24785 18.3396 4.56301L16.0786 6.82398L13.1762 3.9216ZM14.2159 6.61859L11.2111 9.62328C10.973 9.86145 10.6242 9.9509 10.3007 9.8566L9.53309 9.63285L13.3816 5.78434L14.2159 6.61859Z" fill="#0061DF"/>
</svg>
